<svg width="22" height="22" viewBox="0 0 22 22" fill="none" xmlns="http://www.w3.org/2000/svg">
    <path d="M16.2812 21.4395H5.125C2.41108 21.4395 0.203125 19.2315 0.203125 16.5176V9.58594C0.203125 6.87202 2.41108 4.66406 5.125 4.66406H8.40625C8.85931 4.66406 9.22656 5.03132 9.22656 5.48438C9.22656 5.93743 8.85931 6.30469 8.40625 6.30469H5.125C3.31572 6.30469 1.84375 7.77666 1.84375 9.58594V16.5176C1.84375 18.3269 3.31572 19.7988 5.125 19.7988H16.2812C18.0905 19.7988 19.5625 18.3269 19.5625 16.5176V11.8008C19.5625 11.3477 19.9298 10.9805 20.3828 10.9805C20.8359 10.9805 21.2031 11.3477 21.2031 11.8008V16.5176C21.2031 19.2315 18.9952 21.4395 16.2812 21.4395ZM21.2031 5.60742C21.2031 2.75778 18.8848 0.439453 16.0352 0.439453C13.1855 0.439453 10.8672 2.75778 10.8672 5.60742C10.8672 8.45706 13.1855 10.7754 16.0352 10.7754C18.8848 10.7754 21.2031 8.45706 21.2031 5.60742ZM19.5625 5.60742C19.5625 7.55238 17.9801 9.13477 16.0352 9.13477C14.0902 9.13477 12.5078 7.55238 12.5078 5.60742C12.5078 3.66246 14.0902 2.08008 16.0352 2.08008C17.9801 2.08008 19.5625 3.66246 19.5625 5.60742Z" fill="#0C6635" />
    <path d="M10.7029 15.6922C9.6498 15.6922 8.59689 15.3571 7.7183 14.6869L3.80819 11.7135C3.44758 11.4393 3.37753 10.9246 3.65176 10.564C3.92603 10.2034 4.44066 10.1333 4.80126 10.4076L8.71231 13.3817C9.88486 14.276 11.5215 14.276 12.6931 13.3824L14.0603 12.3367C14.4201 12.0615 14.935 12.1301 15.2102 12.4899C15.4855 12.8497 15.4169 13.3646 15.057 13.6398L13.6889 14.6862C12.8096 15.3569 11.7562 15.6922 10.7029 15.6922ZM16.8555 6.87695V4.33398C16.8555 3.88093 16.4883 3.51367 16.0352 3.51367H15.2149C14.7618 3.51367 14.3946 3.88093 14.3946 4.33398C14.3946 4.78704 14.7618 5.1543 15.2149 5.1543V6.87695C15.2149 7.33001 15.5821 7.69727 16.0352 7.69727C16.4883 7.69727 16.8555 7.33001 16.8555 6.87695Z" fill="#0C6635" />
</svg>
