<svg width="21" height="23" viewBox="0 0 21 23" fill="none" xmlns="http://www.w3.org/2000/svg">
<path d="M15.9304 22.4398H5.01759C2.36289 22.4398 0.203125 20.1429 0.203125 17.3197V5.71392C0.203125 2.89066 2.36289 0.59375 5.01759 0.59375H15.9304C18.5851 0.59375 20.7449 2.89066 20.7449 5.71392V17.3197C20.7449 20.1429 18.5851 22.4398 15.9304 22.4398ZM5.01759 2.30047C3.24779 2.30047 1.80795 3.83175 1.80795 5.71392V17.3197C1.80795 19.2018 3.24779 20.7331 5.01759 20.7331H15.9304C17.7002 20.7331 19.14 19.2018 19.14 17.3197V5.71392C19.14 3.83175 17.7002 2.30047 15.9304 2.30047H5.01759ZM8.66856 4.90323C8.66856 4.43192 8.30932 4.04987 7.86615 4.04987H4.49602C4.05285 4.04987 3.69361 4.43192 3.69361 4.90323C3.69361 5.37454 4.05285 5.75659 4.49602 5.75659H7.86615C8.30932 5.75659 8.66856 5.37454 8.66856 4.90323ZM16.0106 14.8449C16.0106 14.3736 15.6514 13.9915 15.2082 13.9915H8.50808C8.06491 13.9915 7.70567 14.3736 7.70567 14.8449C7.70567 15.3162 8.06491 15.6983 8.50808 15.6983H15.2082C15.6514 15.6983 16.0106 15.3162 16.0106 14.8449ZM17.0939 18.173C17.0939 17.7017 16.7346 17.3197 16.2915 17.3197H14.5262C14.083 17.3197 13.7238 17.7017 13.7238 18.173C13.7238 18.6443 14.083 19.0264 14.5262 19.0264H16.2915C16.7346 19.0264 17.0939 18.6443 17.0939 18.173Z" fill="#0C6635"/>
<path d="M16.4103 12.3711H10.7533C10.3101 12.3711 9.95086 11.989 9.95086 11.5177C9.95086 11.0464 10.3101 10.6644 10.7533 10.6644H16.4103C16.8534 10.6644 17.2127 11.0464 17.2127 11.5177C17.2127 11.989 16.8534 12.3711 16.4103 12.3711ZM14.4042 8.23227C14.4042 7.76096 14.045 7.37891 13.6018 7.37891H6.09929C5.65611 7.37891 5.29688 7.76096 5.29688 8.23227C5.29688 8.70358 5.65611 9.08563 6.09929 9.08563H13.6018C14.045 9.08563 14.4042 8.70358 14.4042 8.23227Z" fill="#0C6635"/>
</svg>
