<svg width="19" height="17" viewBox="0 0 19 17" fill="none" xmlns="http://www.w3.org/2000/svg">
<path d="M14.0717 13.4657H4.30692C1.9321 13.4657 0 11.6757 0 9.47541V4.02032C0 1.81967 1.93242 0.0292969 4.30767 0.0292969H11.4153C11.8119 0.0292969 12.1333 0.327093 12.1333 0.694467C12.1333 1.06184 11.8119 1.35964 11.4153 1.35964H4.30767C2.72417 1.35964 1.43589 2.55322 1.43589 4.02032V9.47541C1.43589 10.9421 2.72385 12.1354 4.30692 12.1354H14.0717C15.6552 12.1354 16.9435 10.9418 16.9435 9.47471V6.48144C16.9435 6.11407 17.2649 5.81627 17.6615 5.81627C18.058 5.81627 18.3794 6.11407 18.3794 6.48144V9.47471C18.3794 11.6754 16.447 13.4657 14.0717 13.4657ZM13.3538 15.4612C13.3538 15.0939 13.0324 14.7961 12.6358 14.7961H5.74356C5.34704 14.7961 5.02562 15.0939 5.02562 15.4612C5.02562 15.8286 5.34704 16.1264 5.74356 16.1264H12.6358C13.0324 16.1264 13.3538 15.8286 13.3538 15.4612Z" fill="#0C6635"/>
<path d="M17.6631 4.48593C17.2666 4.48593 16.9451 4.18814 16.9451 3.82076V2.06395C16.9451 1.67559 16.6041 1.35964 16.185 1.35964H14.2887C13.8922 1.35964 13.5708 1.06184 13.5708 0.694467C13.5708 0.327093 13.8922 0.0292969 14.2887 0.0292969H16.185C17.3959 0.0292969 18.381 0.94201 18.381 2.06395V3.82076C18.381 4.18814 18.0596 4.48593 17.6631 4.48593ZM15.8845 3.41511C16.1584 3.14944 16.1479 2.72839 15.8611 2.47469C15.5744 2.221 15.1199 2.23068 14.8461 2.49635C13.1037 4.18684 10.7895 5.11785 8.32979 5.11785H7.90545C7.50892 5.11785 7.1875 5.41564 7.1875 5.78302C7.1875 6.15039 7.50892 6.44818 7.90545 6.44818H8.32979C11.1856 6.44818 13.8686 5.37101 15.8845 3.41511Z" fill="#0C6635"/>
</svg>
