<svg width="18" height="19" viewBox="0 0 18 19" fill="none" xmlns="http://www.w3.org/2000/svg">
<path d="M13.7493 12.6188C12.1658 12.6188 10.8775 11.2487 10.8775 9.5647C10.8775 7.88064 12.1658 6.51056 13.7493 6.51056C15.3328 6.51056 16.6211 7.88064 16.6211 9.5647C16.6211 11.2487 15.3328 12.6188 13.7493 12.6188ZM13.7493 7.9478C12.911 7.9478 12.2289 8.67314 12.2289 9.5647C12.2289 10.4563 12.911 11.1816 13.7493 11.1816C14.5876 11.1816 15.2696 10.4563 15.2696 9.5647C15.2696 8.67314 14.5876 7.9478 13.7493 7.9478ZM8.37735 17.721C8.37735 17.3241 8.07483 17.0024 7.70164 17.0024H4.59264C3.10269 17.0024 1.89049 15.7133 1.89049 14.1287V4.35394C1.89049 2.76938 3.10269 1.48021 4.59264 1.48021H10.8113C12.3013 1.48021 13.5135 2.76938 13.5135 4.35394C13.5135 4.75083 13.816 5.07256 14.1892 5.07256C14.5624 5.07256 14.8649 4.75083 14.8649 4.35394C14.8649 1.97689 13.0465 0.0429688 10.8106 0.0429688H4.59264C2.35751 0.0429688 0.539062 1.97689 0.539062 4.35394V14.1287C0.539062 16.5057 2.35751 18.4397 4.59264 18.4397H7.70164C8.07483 18.4397 8.37735 18.1179 8.37735 17.721ZM9.49228 8.19932C9.49228 7.80242 9.18976 7.48069 8.81657 7.48069H5.50556C5.13237 7.48069 4.82985 7.80242 4.82985 8.19932C4.82985 8.59621 5.13237 8.91794 5.50556 8.91794H8.81657C9.18976 8.91794 9.49228 8.59621 9.49228 8.19932ZM9.49228 13.6968C9.49228 13.2999 9.18976 12.9781 8.81657 12.9781H5.50556C5.13237 12.9781 4.82985 13.2999 4.82985 13.6968C4.82985 14.0937 5.13237 14.4154 5.50556 14.4154H8.81657C9.18976 14.4154 9.49228 14.0937 9.49228 13.6968ZM9.49228 10.9301C9.49228 10.5332 9.18976 10.2115 8.81657 10.2115H5.50556C5.13237 10.2115 4.82985 10.5332 4.82985 10.9301C4.82985 11.327 5.13237 11.6487 5.50556 11.6487H8.81657C9.18976 11.6487 9.49228 11.327 9.49228 10.9301Z" fill="#0C6635"/>
<path d="M17.1599 18.4405C16.7867 18.4405 16.4842 18.1188 16.4842 17.7219C16.4842 16.2954 15.4002 15.1348 14.0677 15.1348H13.495C12.1625 15.1348 11.0785 16.2954 11.0785 17.7219C11.0785 18.1188 10.776 18.4405 10.4028 18.4405C10.0296 18.4405 9.72706 18.1188 9.72706 17.7219C9.72706 15.5029 11.4174 13.6976 13.495 13.6976H14.0676C16.1453 13.6976 17.8356 15.5029 17.8356 17.7219C17.8356 18.1188 17.5331 18.4405 17.1599 18.4405ZM10.842 5.43346C10.842 5.03657 10.5395 4.71484 10.1663 4.71484H5.50384C5.13064 4.71484 4.82812 5.03657 4.82812 5.43346C4.82812 5.83036 5.13064 6.15209 5.50384 6.15209H10.1663C10.5395 6.15209 10.842 5.83036 10.842 5.43346Z" fill="#0C6635"/>
</svg>
