<svg width="15" height="20" viewBox="0 0 15 20" fill="none" xmlns="http://www.w3.org/2000/svg">
<path d="M13.5951 19.9369C13.1995 19.9369 12.8789 19.596 12.8789 19.1753C12.8789 16.1936 10.598 13.7678 7.79428 13.7678H6.72006C3.91638 13.7678 1.63542 16.1936 1.63542 19.1753C1.63542 19.596 1.3148 19.9369 0.919272 19.9369C0.523744 19.9369 0.203125 19.596 0.203125 19.1753C0.203125 15.3537 3.12662 12.2446 6.72006 12.2446H7.79428C11.3877 12.2446 14.3112 15.3537 14.3112 19.1753C14.3112 19.596 13.9906 19.9369 13.5951 19.9369ZM12.0196 5.58039C12.0196 2.74568 9.85102 0.439453 7.18556 0.439453C4.52009 0.439453 2.35157 2.74568 2.35157 5.58039C2.35157 8.41511 4.52009 10.7213 7.18556 10.7213C9.85102 10.7213 12.0196 8.41511 12.0196 5.58039ZM10.5873 5.58039C10.5873 7.57519 9.06125 9.19809 7.18556 9.19809C5.30986 9.19809 3.78386 7.57519 3.78386 5.58039C3.78386 3.58559 5.30986 1.96269 7.18556 1.96269C9.06125 1.96269 10.5873 3.58559 10.5873 5.58039Z" fill="#0C6635"/>
<path d="M7.22201 19.9369C7.09783 19.9369 6.97368 19.9026 6.86261 19.8341L3.96221 18.0443C3.79539 17.9413 3.67468 17.7712 3.62734 17.5723C3.58004 17.3735 3.61016 17.1628 3.71085 16.9878L4.78507 15.1218C4.99157 14.7631 5.43246 14.6504 5.76977 14.87C6.10707 15.0896 6.2131 15.5585 6.00656 15.9172L5.31523 17.1181L7.2263 18.2975L9.18672 17.1169L8.47877 15.9268C8.26733 15.5713 8.36684 15.1008 8.7011 14.876C9.03529 14.6511 9.47773 14.757 9.68917 15.1124L10.7992 16.9783C10.904 17.1545 10.9363 17.3686 10.8886 17.5708C10.8409 17.773 10.7174 17.9456 10.5469 18.0483L7.57485 19.8381C7.46539 19.904 7.34365 19.9369 7.22201 19.9369Z" fill="#0C6635"/>
</svg>
