<svg width="21" height="23" viewBox="0 0 21 23" fill="none" xmlns="http://www.w3.org/2000/svg">
<path d="M15.9304 22.5863H5.01759C2.36289 22.5863 0.203125 20.2894 0.203125 17.4661V5.86041C0.203125 3.03714 2.36289 0.740234 5.01759 0.740234H15.9304C18.5851 0.740234 20.7449 3.03714 20.7449 5.86041V17.4661C20.7449 20.2894 18.5851 22.5863 15.9304 22.5863ZM5.01759 2.44696C3.24779 2.44696 1.80795 3.97823 1.80795 5.86041V17.4661C1.80795 19.3483 3.24779 20.8796 5.01759 20.8796H15.9304C17.7002 20.8796 19.14 19.3483 19.14 17.4661V5.86041C19.14 3.97823 17.7002 2.44696 15.9304 2.44696H5.01759ZM8.66856 5.04971C8.66856 4.5784 8.30932 4.19635 7.86615 4.19635H4.49602C4.05285 4.19635 3.69361 4.5784 3.69361 5.04971C3.69361 5.52103 4.05285 5.90308 4.49602 5.90308H7.86615C8.30932 5.90308 8.66856 5.52103 8.66856 5.04971ZM16.0106 14.9914C16.0106 14.5201 15.6514 14.138 15.2082 14.138H8.50808C8.06491 14.138 7.70567 14.5201 7.70567 14.9914C7.70567 15.4627 8.06491 15.8447 8.50808 15.8447H15.2082C15.6514 15.8447 16.0106 15.4627 16.0106 14.9914ZM17.0939 18.3195C17.0939 17.8482 16.7346 17.4661 16.2915 17.4661H14.5262C14.083 17.4661 13.7238 17.8482 13.7238 18.3195C13.7238 18.7908 14.083 19.1729 14.5262 19.1729H16.2915C16.7346 19.1729 17.0939 18.7908 17.0939 18.3195Z" fill="#0C6635"/>
</svg>
